# Blender v2.71 (sub 0) OBJ File: 'chess.blend'
# www.blender.org
o Queen_Sphere.007
v -0.053079 0.119702 -0.091936
v 0.053079 0.119702 -0.091936
v -0.106158 0.119702 -0.000000
v -0.053079 0.119702 0.091936
v 0.053079 0.119702 0.091936
v 0.106158 0.119702 0.000000
v -0.072125 0.050160 -0.124924
v 0.072125 0.050160 -0.124924
v -0.144250 0.050160 -0.000000
v -0.072125 0.050160 0.124924
v 0.072125 0.050160 0.124924
v 0.144250 0.050160 0.000000
v 0.072125 -0.000711 -0.124924
v -0.072125 -0.000711 -0.124924
v -0.144250 -0.000711 -0.000000
v -0.072125 -0.000711 0.124924
v 0.072125 -0.000711 0.124924
v 0.144250 -0.000711 0.000000
v -0.025543 0.379856 -0.044242
v 0.025543 0.379856 -0.044242
v -0.051086 0.379856 -0.000000
v -0.025543 0.379856 0.044242
v 0.025543 0.379856 0.044242
v 0.051086 0.379856 0.000000
v -0.060585 0.392698 -0.104936
v 0.060585 0.392698 -0.104936
v -0.121170 0.392698 -0.000000
v -0.060585 0.392698 0.104936
v 0.060585 0.392698 0.104936
v 0.121170 0.392698 0.000000
v -0.032716 0.412698 -0.056666
v 0.032716 0.412698 -0.056666
v -0.065432 0.412698 -0.000000
v -0.032716 0.412698 0.056666
v 0.032716 0.412698 0.056666
v 0.065432 0.412698 0.000000
v -0.036604 0.487800 -0.063400
v 0.036604 0.487800 -0.063400
v -0.073208 0.487800 -0.000000
v -0.036604 0.487800 0.063400
v 0.036604 0.487800 0.063400
v 0.073208 0.487800 0.000000
v -0.061572 0.598548 -0.106646
v 0.061572 0.598548 -0.106646
v -0.123144 0.598548 -0.000000
v -0.061572 0.598548 0.106646
v 0.061572 0.598548 0.106646
v 0.123144 0.598548 0.000000
v -0.055513 0.607068 -0.096151
v 0.055513 0.607068 -0.096151
v -0.111026 0.607068 -0.000000
v -0.055513 0.607068 0.096151
v 0.055513 0.607068 0.096151
v 0.111026 0.607068 0.000000
v -0.027120 0.581445 -0.046973
v 0.027120 0.581445 -0.046973
v -0.054240 0.581445 -0.000000
v -0.027120 0.581445 0.046973
v 0.027120 0.581445 0.046973
v 0.054240 0.581445 0.000000
v 0.000000 0.655277 0.000000
vt 0.986907 0.383955
vt 0.824382 0.383955
vt 0.824382 0.315551
vt 0.986907 0.315551
vt 0.174284 0.383955
vt 0.011760 0.383955
vt 0.011760 0.315551
vt 0.174284 0.315551
vt 0.336809 0.383955
vt 0.336809 0.315551
vt 0.499333 0.383955
vt 0.499333 0.315551
vt 0.661858 0.383955
vt 0.661858 0.315551
vt 0.824382 0.265513
vt 0.986907 0.265513
vt 0.011760 0.265513
vt 0.174284 0.265513
vt 0.336809 0.265513
vt 0.499333 0.265513
vt 0.661858 0.265513
vt 0.714136 0.133363
vt 0.987659 0.133363
vt 0.919279 0.251802
vt 0.782517 0.251802
vt 0.919279 0.014924
vt 0.782517 0.014924
vt 0.986907 0.639852
vt 0.824382 0.639852
vt 0.174284 0.639852
vt 0.011760 0.639852
vt 0.336809 0.639852
vt 0.499333 0.639852
vt 0.661858 0.639852
vt 0.986907 0.708972
vt 0.824382 0.708972
vt 0.174284 0.708972
vt 0.011760 0.708972
vt 0.336809 0.708972
vt 0.499333 0.708972
vt 0.661858 0.708972
vt 0.986907 0.777063
vt 0.824382 0.777063
vt 0.174284 0.777063
vt 0.011760 0.777063
vt 0.336809 0.777063
vt 0.499333 0.777063
vt 0.661858 0.777063
vt 0.986907 0.850935
vt 0.824382 0.850935
vt 0.174284 0.850935
vt 0.011760 0.850935
vt 0.336809 0.850935
vt 0.499333 0.850935
vt 0.661858 0.850935
vt 0.986907 0.959872
vt 0.824382 0.959872
vt 0.174284 0.959872
vt 0.011760 0.959872
vt 0.336809 0.959872
vt 0.499333 0.959872
vt 0.661858 0.959872
vt 0.986907 0.983746
vt 0.824382 0.983746
vt 0.174284 0.983746
vt 0.011760 0.983746
vt 0.336809 0.983746
vt 0.499333 0.983746
vt 0.661858 0.983746
vt 0.228746 0.246704
vt 0.095497 0.246704
vt 0.134504 0.178382
vt 0.192570 0.179345
vt 0.014603 0.127178
vt 0.104185 0.128633
vt 0.099294 0.009813
vt 0.136349 0.079880
vt 0.234124 0.013808
vt 0.194838 0.081231
vt 0.309743 0.132703
vt 0.224466 0.131760
vt 0.164485 0.129872
vn 0.000000 0.320300 -0.947300
vn 0.000000 0.428600 -0.903500
vn -0.820400 0.320300 -0.473700
vn -0.782500 0.428600 -0.451700
vn -0.820400 0.320300 0.473700
vn -0.782500 0.428600 0.451700
vn -0.000000 0.320300 0.947300
vn -0.000000 0.428600 0.903500
vn 0.820400 0.320300 0.473700
vn 0.782500 0.428600 0.451700
vn 0.820400 0.320300 -0.473700
vn 0.782500 0.428600 -0.451700
vn 0.000000 0.000000 -1.000000
vn -0.866000 0.000000 -0.500000
vn -0.866000 0.000000 0.500000
vn -0.000000 0.000000 1.000000
vn 0.866000 0.000000 0.500000
vn 0.866000 0.000000 -0.500000
vn 0.000000 -1.000000 0.000000
vn 0.000000 0.180300 -0.983600
vn -0.851800 0.180300 -0.491800
vn -0.851800 0.180300 0.491800
vn 0.000000 0.180300 0.983600
vn 0.851800 0.180300 0.491800
vn 0.851800 0.180300 -0.491800
vn 0.000000 -0.978300 -0.207000
vn -0.179300 -0.978300 -0.103500
vn -0.179300 -0.978300 0.103500
vn -0.000000 -0.978300 0.207000
vn 0.179300 -0.978300 0.103500
vn 0.179300 -0.978300 -0.103500
vn 0.000000 0.923800 -0.382800
vn -0.331500 0.923800 -0.191400
vn -0.331500 0.923800 0.191400
vn -0.000000 0.923800 0.382800
vn 0.331500 0.923800 0.191400
vn 0.331500 0.923800 -0.191400
vn 0.000000 -0.089300 -0.996000
vn 0.000000 -0.239700 -0.970900
vn -0.862600 -0.089300 -0.498000
vn -0.840800 -0.239700 -0.485400
vn -0.862600 -0.089300 0.498000
vn -0.840800 -0.239700 0.485400
vn -0.000000 -0.089300 0.996000
vn -0.000000 -0.239700 0.970900
vn 0.862600 -0.089300 0.498000
vn 0.840800 -0.239700 0.485400
vn 0.862600 -0.089300 -0.498000
vn 0.840800 -0.239700 -0.485400
vn 0.000000 -0.363700 -0.931500
vn -0.806700 -0.363700 -0.465800
vn -0.806700 -0.363700 0.465800
vn -0.000000 -0.363700 0.931500
vn 0.806700 -0.363700 0.465800
vn 0.806700 -0.363700 -0.465800
vn 0.000000 0.776400 -0.630200
vn -0.545800 0.776400 -0.315100
vn -0.545800 0.776400 0.315100
vn -0.000000 0.776400 0.630200
vn 0.545800 0.776400 0.315100
vn 0.545800 0.776400 -0.315100
vn 0.000000 0.886800 0.462100
vn 0.400200 0.886800 0.231000
vn 0.400200 0.886800 -0.231000
vn 0.000000 0.886800 -0.462100
vn -0.400200 0.886800 -0.231000
vn -0.400200 0.886800 0.231000
vn 0.000000 0.536800 -0.843700
vn -0.730700 0.536800 -0.421900
vn -0.730700 0.536800 0.421900
vn 0.000000 0.536800 0.843700
vn 0.730700 0.536800 0.421900
vn 0.730700 0.536800 -0.421900
s 1
f 1/1/1 2/2/1 8/3/2 7/4/2
f 3/5/3 1/6/3 7/7/4 9/8/4
f 4/9/5 3/5/5 9/8/6 10/10/6
f 5/11/7 4/9/7 10/10/8 11/12/8
f 6/13/9 5/11/9 11/12/10 12/14/10
f 2/2/11 6/13/11 12/14/12 8/3/12
f 7/4/13 8/3/13 13/15/13 14/16/13
f 9/8/14 7/7/14 14/17/14 15/18/14
f 10/10/15 9/8/15 15/18/15 16/19/15
f 11/12/16 10/10/16 16/19/16 17/20/16
f 12/14/17 11/12/17 17/20/17 18/21/17
f 8/3/18 12/14/18 18/21/18 13/15/18
f 15/22/19 18/23/19 17/24/19 16/25/19
f 13/26/19 18/23/19 15/22/19 14/27/19
f 2/2/1 1/1/1 19/28/20 20/29/20
f 1/6/3 3/5/3 21/30/21 19/31/21
f 3/5/5 4/9/5 22/32/22 21/30/22
f 4/9/7 5/11/7 23/33/23 22/32/23
f 5/11/9 6/13/9 24/34/24 23/33/24
f 6/13/11 2/2/11 20/29/25 24/34/25
f 20/29/26 19/28/26 25/35/26 26/36/26
f 19/31/27 21/30/27 27/37/27 25/38/27
f 21/30/28 22/32/28 28/39/28 27/37/28
f 22/32/29 23/33/29 29/40/29 28/39/29
f 23/33/30 24/34/30 30/41/30 29/40/30
f 24/34/31 20/29/31 26/36/31 30/41/31
f 26/36/32 25/35/32 31/42/32 32/43/32
f 25/38/33 27/37/33 33/44/33 31/45/33
f 27/37/34 28/39/34 34/46/34 33/44/34
f 28/39/35 29/40/35 35/47/35 34/46/35
f 29/40/36 30/41/36 36/48/36 35/47/36
f 30/41/37 26/36/37 32/43/37 36/48/37
f 32/43/38 31/42/38 37/49/39 38/50/39
f 31/45/40 33/44/40 39/51/41 37/52/41
f 33/44/42 34/46/42 40/53/43 39/51/43
f 34/46/44 35/47/44 41/54/45 40/53/45
f 35/47/46 36/48/46 42/55/47 41/54/47
f 36/48/48 32/43/48 38/50/49 42/55/49
f 38/50/39 37/49/39 43/56/50 44/57/50
f 37/52/41 39/51/41 45/58/51 43/59/51
f 39/51/43 40/53/43 46/60/52 45/58/52
f 40/53/45 41/54/45 47/61/53 46/60/53
f 41/54/47 42/55/47 48/62/54 47/61/54
f 42/55/49 38/50/49 44/57/55 48/62/55
f 44/57/56 43/56/56 49/63/56 50/64/56
f 43/59/57 45/58/57 51/65/57 49/66/57
f 45/58/58 46/60/58 52/67/58 51/65/58
f 46/60/59 47/61/59 53/68/59 52/67/59
f 47/61/60 48/62/60 54/69/60 53/68/60
f 48/62/61 44/57/61 50/64/61 54/69/61
f 50/70/62 49/71/62 55/72/62 56/73/62
f 49/71/63 51/74/63 57/75/63 55/72/63
f 51/74/64 52/76/64 58/77/64 57/75/64
f 52/76/65 53/78/65 59/79/65 58/77/65
f 53/78/66 54/80/66 60/81/66 59/79/66
f 54/80/67 50/70/67 56/73/67 60/81/67
f 56/73/68 55/72/68 61/82/68
f 55/72/69 57/75/69 61/82/69
f 57/75/70 58/77/70 61/82/70
f 58/77/71 59/79/71 61/82/71
f 59/79/72 60/81/72 61/82/72
f 60/81/73 56/73/73 61/82/73
