# Blender v2.78 (sub 0) OBJ File: 'Cube.blend'
# www.blender.org
o Cube
v 1.000000 1.000000 2.000000
v 1.000000 -1.000000 2.000000
v 1.000000 -1.000000 0.000000
v 1.000000 1.000000 -0.000000
v -1.000000 -1.000000 2.000000
v -1.000000 -1.000000 0.000000
v -1.000000 1.000000 2.000000
v -1.000000 1.000000 -0.000000
vt 1.0000 1.0000
vt 0.0000 1.0000
vt 0.0000 0.0000
vt 1.0000 0.0000
vt 1.0000 1.0000
vt 0.0000 1.0000
vt 0.0000 0.0000
vt 1.0000 0.0000
vt 1.0000 1.0000
vt 0.0000 1.0000
vt 0.0000 0.0000
vt 1.0000 0.0000
vt 1.0000 1.0000
vt 0.0000 1.0000
vt 0.0000 0.0000
vt 1.0000 0.0000
vt 0.0000 1.0000
vt 1.0000 1.0000
vt 1.0000 0.0000
vt 0.0000 0.0000
vn 1.0000 0.0000 0.0000
vn 0.0000 -1.0000 0.0000
vn -1.0000 0.0000 0.0000
vn 0.0000 1.0000 0.0000
vn 0.0000 -0.0000 -1.0000
vn 0.0000 0.0000 1.0000
s 1
f 1/1/1 2/2/1 3/3/1 4/4/1
f 2/5/2 5/6/2 6/7/2 3/8/2
f 5/9/3 7/10/3 8/11/3 6/12/3
f 7/13/4 1/14/4 4/15/4 8/16/4
f 4/17/5 3/3/5 6/12/5 8/18/5
f 7/19/6 5/9/6 2/2/6 1/20/6
