# Blender v2.71 (sub 0) OBJ File: 'chess.blend'
# www.blender.org
o Pawn_Sphere.003
v 0.028284 0.339010 -0.048990
v 0.040000 0.395579 -0.069282
v 0.028284 0.452147 -0.048990
v -0.028284 0.452147 -0.048990
v -0.040000 0.395579 -0.069282
v -0.028284 0.339010 -0.048990
v -0.056569 0.339010 -0.000000
v -0.080000 0.395579 -0.000000
v -0.056569 0.452147 -0.000000
v -0.028284 0.452147 0.048990
v -0.040000 0.395579 0.069282
v -0.028284 0.339010 0.048990
v 0.028284 0.339010 0.048990
v 0.040000 0.395579 0.069282
v 0.028284 0.452147 0.048990
v 0.000000 0.475579 0.000000
v 0.056569 0.452147 0.000000
v 0.080000 0.395579 0.000000
v 0.056569 0.339010 0.000000
v 0.045255 0.323010 -0.078384
v -0.045255 0.323010 -0.078384
v -0.090510 0.323010 -0.000000
v -0.045255 0.323010 0.078384
v 0.045255 0.323010 0.078384
v 0.090510 0.323010 0.000000
v 0.017713 0.307012 -0.030679
v -0.017713 0.307012 -0.030679
v -0.035425 0.307012 -0.000000
v -0.017713 0.307012 0.030679
v 0.017713 0.307012 0.030679
v 0.035425 0.307012 0.000000
v -0.037866 0.104270 -0.065585
v 0.037866 0.104270 -0.065585
v -0.075731 0.104270 -0.000000
v -0.037866 0.104270 0.065585
v 0.037866 0.104270 0.065585
v 0.075731 0.104270 0.000000
v -0.064912 0.050270 -0.112432
v 0.064912 0.050270 -0.112432
v -0.129825 0.050270 -0.000000
v -0.064912 0.050270 0.112432
v 0.064912 0.050270 0.112432
v 0.129825 0.050270 0.000000
v 0.064912 0.000539 -0.112432
v -0.064912 0.000539 -0.112432
v -0.129825 0.000539 -0.000000
v -0.064912 0.000539 0.112432
v 0.064912 0.000539 0.112432
v 0.129825 0.000539 0.000000
vt 0.503552 0.508007
vt 0.574422 0.536730
vt 0.558585 0.617972
vt 0.458358 0.577350
vt 0.513391 0.687315
vt 0.442520 0.658592
vt 0.450382 0.740989
vt 0.574422 0.699213
vt 0.650892 0.699213
vt 0.612657 0.772623
vt 0.666730 0.617972
vt 0.650892 0.536730
vt 0.721764 0.508007
vt 0.766957 0.577352
vt 0.782794 0.658594
vt 0.711922 0.687316
vt 0.774931 0.740990
vt 0.602367 0.875910
vt 0.673780 0.904853
vt 0.610289 0.958937
vt 0.618326 0.794048
vt 0.719319 0.834979
vt 0.663864 0.724173
vt 0.735277 0.753116
vt 0.812333 0.753116
vt 0.828291 0.834979
vt 0.812333 0.916842
vt 0.735277 0.916842
vt 0.773805 0.990813
vt 0.873830 0.904853
vt 0.945243 0.875910
vt 0.937321 0.958937
vt 0.929284 0.794048
vt 0.883745 0.724173
vt 0.979182 0.488142
vt 0.818899 0.488142
vt 0.818899 0.426593
vt 0.979182 0.426593
vt 0.177767 0.488142
vt 0.017484 0.488142
vt 0.017484 0.426593
vt 0.177767 0.426593
vt 0.338050 0.488142
vt 0.338050 0.426593
vt 0.498333 0.488142
vt 0.498333 0.426593
vt 0.658616 0.488142
vt 0.658616 0.426593
vt 0.818899 0.365051
vt 0.979182 0.365051
vt 0.017484 0.365051
vt 0.177767 0.365051
vt 0.338050 0.365051
vt 0.498333 0.365051
vt 0.658616 0.365051
vt 0.818899 0.136142
vt 0.979182 0.136142
vt 0.017484 0.136142
vt 0.177767 0.136142
vt 0.338050 0.136142
vt 0.498333 0.136142
vt 0.658616 0.136142
vt 0.818899 0.071228
vt 0.979182 0.071228
vt 0.017484 0.071228
vt 0.177767 0.071228
vt 0.338050 0.071228
vt 0.498333 0.071228
vt 0.658616 0.071228
vt 0.818899 0.011445
vt 0.979182 0.011445
vt 0.017484 0.011445
vt 0.177767 0.011445
vt 0.338050 0.011445
vt 0.498333 0.011445
vt 0.658616 0.011445
vt 0.031927 0.688417
vt 0.409909 0.688417
vt 0.315414 0.852088
vt 0.126423 0.852088
vt 0.315414 0.520891
vt 0.409909 0.684562
vt 0.031927 0.684562
vt 0.126423 0.520891
vn 0.815200 -0.337700 -0.470600
vn 0.866000 -0.000000 -0.500000
vn 0.695700 0.595500 -0.401700
vn 0.373700 0.902100 -0.215700
vn 0.000000 0.595500 -0.803300
vn 0.000000 0.902100 -0.431500
vn 0.000000 -0.000000 -1.000000
vn 0.000000 -0.337700 -0.941300
vn -0.815200 -0.337700 -0.470600
vn -0.866000 -0.000000 -0.500000
vn -0.695700 0.595500 -0.401700
vn -0.373700 0.902100 -0.215700
vn -0.695700 0.595500 0.401700
vn -0.373700 0.902100 0.215700
vn -0.866000 -0.000000 0.500000
vn -0.815200 -0.337700 0.470600
vn 0.000000 -0.337700 0.941300
vn 0.000000 -0.000000 1.000000
vn -0.000000 0.595500 0.803300
vn -0.000000 0.902100 0.431500
vn 0.695700 0.595500 0.401700
vn 0.373700 0.902100 0.215700
vn 0.866000 -0.000000 0.500000
vn 0.815200 -0.337700 0.470600
vn 0.000000 0.878300 -0.478100
vn -0.414000 0.878300 -0.239000
vn -0.414000 0.878300 0.239000
vn -0.000000 0.878300 0.478100
vn 0.414000 0.878300 0.239000
vn 0.414000 0.878300 -0.239000
vn 0.000000 -0.948100 -0.318000
vn -0.275400 -0.948100 -0.159000
vn -0.275400 -0.948100 0.159000
vn -0.000000 -0.948100 0.318000
vn 0.275400 -0.948100 0.159000
vn 0.275400 -0.948100 -0.159000
vn 0.000000 0.169700 -0.985500
vn 0.000000 0.461900 -0.886900
vn -0.853500 0.169700 -0.492800
vn -0.768100 0.461900 -0.443500
vn -0.853500 0.169700 0.492800
vn -0.768100 0.461900 0.443500
vn -0.000000 0.169700 0.985500
vn -0.000000 0.461900 0.886900
vn 0.853500 0.169700 0.492800
vn 0.768100 0.461900 0.443500
vn 0.853500 0.169700 -0.492800
vn 0.768100 0.461900 -0.443500
vn 0.000000 0.655300 -0.755400
vn -0.654200 0.655300 -0.377700
vn -0.654200 0.655300 0.377700
vn -0.000000 0.655300 0.755400
vn 0.654200 0.655300 0.377700
vn 0.654200 0.655300 -0.377700
vn 0.000000 -1.000000 -0.000000
s 1
f 19/1/1 1/2/1 2/3/2 18/4/2
f 18/4/2 2/3/2 3/5/3 17/6/3
f 17/6/3 3/5/3 16/7/4
f 3/8/5 4/9/5 16/10/6
f 2/3/7 5/11/7 4/9/5 3/8/5
f 1/2/8 6/12/8 5/11/7 2/3/7
f 6/12/9 7/13/9 8/14/10 5/11/10
f 5/11/10 8/14/10 9/15/11 4/16/11
f 4/16/11 9/15/11 16/17/12
f 9/18/13 10/19/13 16/20/14
f 8/21/15 11/22/15 10/19/13 9/18/13
f 7/23/16 12/24/16 11/22/15 8/21/15
f 12/24/17 13/25/17 14/26/18 11/22/18
f 11/22/18 14/26/18 15/27/19 10/28/19
f 10/28/19 15/27/19 16/29/20
f 15/30/21 17/31/21 16/32/22
f 14/26/23 18/33/23 17/31/21 15/30/21
f 13/25/24 19/34/24 18/33/23 14/26/23
f 6/35/25 1/36/25 20/37/25 21/38/25
f 7/39/26 6/40/26 21/41/26 22/42/26
f 12/43/27 7/39/27 22/42/27 23/44/27
f 13/45/28 12/43/28 23/44/28 24/46/28
f 19/47/29 13/45/29 24/46/29 25/48/29
f 1/36/30 19/47/30 25/48/30 20/37/30
f 21/38/31 20/37/31 26/49/31 27/50/31
f 22/42/32 21/41/32 27/51/32 28/52/32
f 23/44/33 22/42/33 28/52/33 29/53/33
f 24/46/34 23/44/34 29/53/34 30/54/34
f 25/48/35 24/46/35 30/54/35 31/55/35
f 20/37/36 25/48/36 31/55/36 26/49/36
f 27/50/37 26/49/37 33/56/38 32/57/38
f 28/52/39 27/51/39 32/58/40 34/59/40
f 29/53/41 28/52/41 34/59/42 35/60/42
f 30/54/43 29/53/43 35/60/44 36/61/44
f 31/55/45 30/54/45 36/61/46 37/62/46
f 26/49/47 31/55/47 37/62/48 33/56/48
f 32/57/38 33/56/38 39/63/49 38/64/49
f 34/59/40 32/58/40 38/65/50 40/66/50
f 35/60/42 34/59/42 40/66/51 41/67/51
f 36/61/44 35/60/44 41/67/52 42/68/52
f 37/62/46 36/61/46 42/68/53 43/69/53
f 33/56/48 37/62/48 43/69/54 39/63/54
f 38/64/7 39/63/7 44/70/7 45/71/7
f 40/66/10 38/65/10 45/72/10 46/73/10
f 41/67/15 40/66/15 46/73/15 47/74/15
f 42/68/18 41/67/18 47/74/18 48/75/18
f 43/69/23 42/68/23 48/75/23 49/76/23
f 39/63/2 43/69/2 49/76/2 44/70/2
f 46/77/55 49/78/55 48/79/55 47/80/55
f 44/81/55 49/82/55 46/83/55 45/84/55
