#------------------------------------------------------------------------------
# Guntower = Cube 2x2x3
#------------------------------------------------------------------------------

o Guntower

#------------------------------------------------------------------------------

v -1.000000 -2.000000 +1.000000
v -1.000000 -2.000000 -1.000000
v +1.000000 -2.000000 -1.000000
v +1.000000 -2.000000 +1.000000

v -1.000000 +4.000000 +1.000000
v -1.000000 +4.000000 -1.000000
v +1.000000 +4.000000 -1.000000
v +1.000000 +4.000000 +1.000000

#------------------------------------------------------------------------------

vt 0.000000 0.000000
vt 1.000000 0.000000
vt 1.000000 1.000000
vt 0.000000 1.000000

#------------------------------------------------------------------------------

vn -1  0  0
vn  0  0 -1
vn  1  0  0
vn  0  0  1
vn  0 -1  0
vn  0  1  0

#------------------------------------------------------------------------------

s off

f 5/1/1 6/2/1 2/3/1 1/4/1
f 6/1/2 7/2/2 3/3/2 2/4/2
f 7/1/3 8/2/3 4/3/3 3/4/3
f 8/1/4 5/2/4 1/3/4 4/4/4
f 1/1/5 2/2/5 3/3/5 4/4/5
f 8/1/6 7/2/6 6/3/6 5/4/6

